<svg id="Layer_1" data-name="Layer 1" xmlns="http://www.w3.org/2000/svg" viewBox="0 0 3047.71 2054.5"><defs><style>.cls-1{fill:#110d0e;fill-rule:evenodd;}.cls-2{fill:#aad03e;}.cls-3,.cls-4{fill:#2b2923;stroke:#2b2923;}.cls-3{stroke-width:8.61px;}.cls-4{fill-opacity:0;stroke-linecap:round;stroke-width:6px;}</style></defs><path class="cls-1" d="M100.32,1906.74c1.62.7,3.09,1.3,4.44,1.92l-4.28,38a41,41,0,0,0-14.15-.17q-19.8,2.46-30.9-.37c-15.21-3.95-23-24.5-13.3-37.91,7-9.71,19.71-12.24,31-10.57a82.33,82.33,0,0,1,27.15,9.11Zm13.34,3.92c5.81-.07,9.82-3.27,17.33-7.6,25.59-14.67,61.94-12.93,79.38,6.12,8.32,9,8.29,19.84.51,29.55-19.5,24.37-67.22,25.55-93.08,12.61-2.92-1.09-5.7-2.07-8.44-2.82Z"/><path class="cls-1" d="M209.19,1827.28a45.82,45.82,0,0,1,3.48-3.36l-17.31-34.08a43,43,0,0,1-13.09,5c-12.94,3.08-22.57,6.69-28.94,11.19-12.86,9-13,30.87.68,40.06,10,6.63,22.86,4.55,32.78-.84a82.28,82.28,0,0,0,22.4-17.94Zm11.12-8.34c5.47-2,10.34-.38,18.9,1.06,29.1,4.79,62.56-9.45,72.23-33.4,4.63-11.38.94-21.5-9.75-27.88-26.81-16.12-71.92-.53-91.62,20.65-2.36,2-4.76,3.84-7.06,5.49Z"/><path class="cls-1" d="M440,1820.06c1.72.56,3.16,1,4.59,1.4.06,12.65.09,25.17.15,37.81a43.67,43.67,0,0,0-14,1.53c-12.68,3.16-22.88,4.26-30.39,3.14-15.48-2-25.41-21.34-17.45-35.55,5.81-10.35,18-14.41,29.28-14.1a83,83,0,0,1,27.79,5.77Zm13.56,2.39c5.56-.76,9.12-4.38,16.12-9.49,23.49-17.39,59.44-19.92,78.69-3.18,9.25,8,10.54,18.56,4,29-16.43,26.28-63.17,32.87-90.07,23.1-3.1-.69-5.93-1.29-8.62-1.8,0-12.52-.09-25.16-.13-37.68Z"/><path class="cls-1" d="M477.87,1717.33c1.25-1.34,2.29-2.4,3.34-3.46C475,1703,468.71,1692,462.52,1681a42.87,42.87,0,0,1-12.75,5.53c-12.73,3.54-22,7.7-28.1,12.4-12.29,9.41-11.47,31.09,2.58,39.6,10.14,6.1,22.79,3.44,32.38-2.38a83,83,0,0,0,21.24-18.85Zm10.68-8.75c5.18-2.18,10.15-.72,18.62.23,29.1,3.42,61.45-12.22,70-36.33,4.11-11.54-.14-21.32-11-27.17-27.17-14.69-71.07,2.8-89.66,24.64-2.22,2.14-4.48,4-6.64,5.79,6.18,10.91,12.51,21.92,18.69,32.84Z"/><path class="cls-1" d="M707.29,1603.93a37.64,37.64,0,0,0,4.39-1.78c8,9.72,15.78,19.47,23.71,29.08a41.87,41.87,0,0,0-9.74,9.82c-7.89,10.48-15,17.6-21.49,21.62-13.29,8-32.93-.62-35.69-16.62-2-11.67,5-22.36,13.8-29.16a82.63,82.63,0,0,1,25-13Zm11.94-6.62c4-4.07,4.42-9.11,6.53-17.3,7.3-28.12,33.35-52.55,58.77-51.68,12,.32,19.61,7.75,21.06,19.89,3.77,30.45-28.18,64.75-55,74.06-2.85,1.38-5.33,2.7-7.8,4.13-7.83-9.74-15.76-19.35-23.58-29.1Z"/><path class="cls-1" d="M698.57,1469.32c.18-1.77.38-3.42.62-4.83-11.55-5-23-10-34.41-15a41.8,41.8,0,0,1-6.75,12c-8,10.38-13,19.22-15,26.53-4.12,14.88,9.41,31.54,25.48,30,11.79-1.26,20.21-10.84,24.41-21.16a84.28,84.28,0,0,0,5.67-27.56Zm3.28-13.37c2.84-4.86,7.61-6.59,14.88-10.88,25.11-14.58,41.54-46.33,34.07-70.53-3.57-11.51-12.84-16.91-24.9-15.1-30.25,4.6-54.72,44.62-56.53,73q-.84,4.62-1.81,8.51l34.29,15Z"/><path class="cls-1" d="M856.67,1288.8a29.45,29.45,0,0,0,3.53-3.11c10.61,6.64,21.1,13.3,31.57,19.84a41.52,41.52,0,0,0-5.94,12.36c-4.08,12.4-8.52,21.39-13.43,27.11-9.76,11.81-31.12,10.09-38.77-4.15-5.57-10.29-2.48-22.63,3.66-31.8a83.7,83.7,0,0,1,19.38-20.25Zm9.08-10.08c2.43-5,1.16-10,.63-18.46-2.23-28.75,14.65-60.08,38.72-67.41,11.49-3.56,21,1.05,26.19,12,13.24,27.37-5.82,69.89-28.06,87.3a80.82,80.82,0,0,0-5.91,6.4c-10.49-6.66-21.1-13.3-31.57-19.85Z"/><path class="cls-1" d="M825.59,1148.3c.17-1.76.27-3.27.49-4.8l-34.52-14.22a42.28,42.28,0,0,1-6.47,12.2c-7.64,10.44-12.49,19.25-14.28,26.52-3.85,15,10,31.31,25.86,29.32,11.64-1.37,19.92-11,23.87-21.44a82.64,82.64,0,0,0,5.05-27.58Zm2.92-13.3c2.72-4.83,7.44-6.8,14.69-11.21,24.54-15,40.33-46.86,32.28-70.83-3.78-11.35-13-16.38-25-14.34-30,5.18-53.47,45.39-54.68,73.64a84.4,84.4,0,0,1-1.69,8.49c11.51,4.74,23,9.49,34.41,14.25Z"/><path class="cls-1" d="M1004.25,997.32c1.66-.43,3.22-.71,4.64-1.09,6.13,10.67,12.3,21.47,18.46,32.26a42.61,42.61,0,0,0-11.07,8c-9.27,9-17.37,14.92-24.42,17.68-14.07,5.77-32-5.75-32.19-21.84-.12-11.64,8.33-21.1,18-26.33a81.51,81.51,0,0,1,26.55-8.64Zm12.66-4.65c4.46-3.41,5.7-8.22,9.14-15.91,11.57-26.41,41-46.1,65.61-41.26,11.67,2.24,18,10.64,17.49,22.77-1.2,30.35-37.78,58.92-65.5,63.8-2.93.91-5.63,1.77-8.18,2.72-6.14-10.67-12.3-21.47-18.56-32.12Z"/><path class="cls-1" d="M1058.44,846.25c.7-1.62,1.32-3,2-4.32-9.3-8.25-18.45-16.39-27.74-24.64a45.46,45.46,0,0,1-10.09,9.27c-10.7,7.27-18,14.05-22.22,20.26-8.46,12.82-.77,32.76,14.83,36.15,11.45,2.39,22.31-4,29.44-12.52a81.41,81.41,0,0,0,13.83-24.2Zm7.07-11.58c4.18-3.61,9.21-3.89,17.44-5.63,28.13-6.07,53.35-31,53.64-56.08.08-11.92-6.9-19.72-18.79-21.79-30-5-65.3,25.2-75.68,51.39a79.44,79.44,0,0,1-4.34,7.48c9.29,8.24,18.58,16.49,27.73,24.63Z"/><path class="cls-1" d="M1285.57,790.07c1.67.32,3.22.66,4.6.78,1.49,12.38,3.09,24.62,4.68,36.86a41,41,0,0,0-13.3,3.15c-12.16,4.68-21.91,6.94-29.36,6.8-15.27-.22-27.36-17.76-21.25-32.63,4.35-10.84,15.78-16.13,26.85-17.26a82.75,82.75,0,0,1,27.78,2.3Zm13.5.66c5.33-1.33,8.32-5.35,14.45-11.17C1334.34,759.8,1369,753,1389.89,767c9.87,6.65,12.46,16.85,7.38,27.82-12.86,27.5-57.62,39.56-85,33.34q-4.55-.48-8.67-.66c-1.47-12.27-3.06-24.51-4.53-36.77Z"/><path class="cls-1" d="M1433.44,674.91c1.26-1.22,2.31-2.28,3.38-3.21-5.47-11.05-11-22.21-16.42-33.26a41.63,41.63,0,0,1-12.87,4.81c-12.63,2.78-22,6.34-28.19,10.55-12.56,8.6-12.93,29.88.34,38.89,9.61,6.57,22.15,4.68,31.87-.43a81.81,81.81,0,0,0,21.89-17.35Zm10.83-7.91c5.34-2,10-.31,18.29,1.16,28.26,4.94,61-8.66,70.55-31.73,4.58-11,1.05-20.9-9.26-27.22-25.88-15.79-69.8-1.16-89.16,19.21-2.38,1.92-4.65,3.69-6.84,5.33,5.47,11,10.93,22.09,16.42,33.25Z"/><path class="cls-1" d="M1611.4,735.9c1.51.85,2.88,1.59,4.24,2.22-2.14,12.17-4.28,24.33-6.39,36.62a38.8,38.8,0,0,0-13.66-.88c-12.85.84-22.88.17-30-2.15-14.59-4.68-21-25-10.85-37.47,7.29-9,19.85-10.78,30.66-8.52a81.34,81.34,0,0,1,26,10.18Zm12.72,4.65c5.62.23,9.66-2.74,17.17-6.45,25.67-12.82,60.88-9.14,76.79,10.31,7.62,9.29,7,19.7-1.13,28.73-20.3,22.65-66.65,21.1-91.09,7.16-2.82-1.22-5.5-2.35-8-3.14,2-12.27,4.13-24.44,6.26-36.61Z"/><path class="cls-1" d="M1753.75,632a40,40,0,0,1,4.24-1.88c-1.36-12.29-2.73-24.69-4.08-37a43.17,43.17,0,0,1-13.6.1c-12.83-1.78-23-1.68-30.2.12-14.8,3.79-22.48,23.66-13.06,36.72,6.79,9.44,19.15,12,30.15,10.55a82.26,82.26,0,0,0,26.55-8.64Zm12.93-3.83c5.59.11,9.38,3.27,16.71,7.53,24.89,14.35,60.28,12.79,77.27-5.53,8.08-8.78,8.15-19.34.62-28.77-18.8-23.89-65.23-25.17-90.48-12.79a74.43,74.43,0,0,1-8.18,2.71q2,18.43,4.06,36.85Z"/><path class="cls-1" d="M1925.39,782.12c1.52.84,2.89,1.58,4.24,2.21-2.13,12.17-4.13,24.43-6.24,36.72a42.59,42.59,0,0,0-13.66-.88c-13,1-23,.31-30.18-1.86-14.6-4.68-21.13-25.08-11-37.58,7.27-9.13,19.83-10.9,30.74-8.78a83.42,83.42,0,0,1,26.11,10.17Zm12.71,4.52c5.63.35,9.68-2.62,17.28-6.47,25.65-12.94,61.08-9.43,77.1,10,7.63,9.29,7,19.81-1,29-20.28,22.76-66.85,21.38-91.41,7.46-2.82-1.23-5.48-2.24-8.11-3.13,2-12.26,4.1-24.55,6.1-36.82Z"/><path class="cls-1" d="M2087.44,704.33c1.47-.76,3-1.4,4.22-2-1.73-12.34-3.47-24.68-5.18-36.89a45.39,45.39,0,0,1-13.78.5c-12.88-1.39-23-1.05-30.14,1.11-14.85,4.17-21.85,24.41-12.11,37.16,7.14,9.38,19.65,11.46,30.59,9.61a82.81,82.81,0,0,0,26.4-9.49Zm12.87-4.18c5.54-.14,9.58,3,17,7,25.5,13.62,60.83,11.08,77.44-8,7.79-9,7.6-19.61-.26-28.86-19.68-23.23-66.23-23.13-91.21-9.93-2.89,1.14-5.56,2.12-8.14,3,1.74,12.34,3.45,24.56,5.19,36.9Z"/><path class="cls-1" d="M2296.71,757.69a45.87,45.87,0,0,0,4.53,1c1.13,12.44,2.15,24.91,3.16,37.38a40.29,40.29,0,0,0-13.65,2.59c-12.39,4.1-22.32,6-29.84,5.52-15.38-.82-26.85-19.09-20.11-33.83,5-10.7,16.74-15.67,27.91-16.2a81.52,81.52,0,0,1,28,3.5ZM2310.2,759c5.61-1.14,8.74-5.05,15.16-10.68,22-19,57.27-24.36,77.7-9.33,9.71,7.18,11.84,17.59,6.12,28.42-14.15,27.24-59.73,37.46-87.23,29.9-3-.44-5.84-.8-8.61-1-1-12.47-2.15-24.91-3.14-37.26Z"/><path class="cls-1" d="M2398.68,644.87c1.1-1.44,2.13-2.62,3-3.78-7.18-10.24-14.24-20.5-21.31-30.88a39.85,39.85,0,0,1-12.17,6.67c-12.16,4.67-21.07,9.51-26.59,14.6-11.36,10.49-8.62,31.82,5.93,39,10.59,5.16,22.68,1.49,31.77-5.12a81.05,81.05,0,0,0,19.33-20.48Zm9.79-9.59c5-2.63,10-1.67,18.45-1.35,29,.84,59.63-17.47,66-42.06,3-11.7-2-21.1-13.23-25.89-28.2-12.14-69.95,9-86.46,32.12a76.62,76.62,0,0,1-6,6.3c7.08,10.38,14.25,20.62,21.31,30.88Z"/><path class="cls-1" d="M2575.32,651.71c1.69-.29,3.27-.46,4.69-.85,5.57,11.34,11.26,22.66,16.8,33.87a42.37,42.37,0,0,0-11.72,7.58c-10,8.5-18.66,14-25.77,16.36-14.81,4.94-32.28-7.76-31.49-24.16.63-11.84,9.75-20.87,19.93-25.58a81.1,81.1,0,0,1,27.56-7.22Zm13.08-3.91c4.82-3.19,6.29-8,10.29-15.65,13.28-26,44.38-44.26,69.15-37.95,11.71,3.1,17.63,11.95,16.44,24.34-3.12,30.74-42.05,57.4-70.5,60.79-3,.67-5.85,1.45-8.47,2.21-5.67-11.2-11.24-22.54-16.91-33.74Z"/><g id="eco_green_flag_icon" data-name="eco green flag icon"><g id="layer3"><path id="path3088" class="cls-2" d="M2996.47,423.74l18-251.37s-42.76-37.67-73.18-50.86-30.79-10.37-135.41-20.68-138.1-40.9-142-55.55c-.68.79-18.71,256.87-18.71,256.87,49.27,30.29,67.56,31.73,133.76,36.51,158.27,11.41,159.59,60.72,217.51,85.08Z"/><path id="rect3874" class="cls-3" d="M2647.76,40.71c2-1.93,3.7-2.37,5,.37.32.71.87.87.8,1.86l-31.87,426.51c-1.33,5.53-4.88,6.12-6.79-.51l31.87-426.5a2.3,2.3,0,0,1,1-1.73Z"/></g></g><ellipse class="cls-4" cx="2614.87" cy="473.76" rx="68.86" ry="38.57"/></svg>